<?xml version="1.0" encoding="UTF-8" standalone="no"?>
<!-- Created with Inkscape (http://www.inkscape.org/) -->

<svg
   width="500"
   height="500"
   viewBox="0 0 132.29166 132.29167"
   version="1.1"
   id="svg1"
   xmlns="http://www.w3.org/2000/svg"
   xmlns:svg="http://www.w3.org/2000/svg">
  <defs
     id="defs1" />
  <g
     id="layer1">
    <path
       id="path5"
       style="fill:none;fill-opacity:1;stroke:#ffffff;stroke-width:2.39435;stroke-linecap:round;stroke-linejoin:round;stroke-dasharray:none;stroke-opacity:1"
       d="m 44.807741,56.002849 c 4.655169,-3.372701 14.302197,3.671217 21.709973,3.726374 7.407775,0.05515 16.841039,-6.60648 21.709965,-3.387613 4.868923,3.218868 2.624673,9.136128 -1.356874,12.534171 -3.981549,3.398043 -12.340383,3.133325 -18.996218,3.048855 C 61.218753,71.840173 52.228908,71.558624 47.973781,68.198258 43.718654,64.837891 40.152573,59.37555 44.807741,56.002849 Z M 12.291356,24.159278 c 0,0 21.224493,42.683935 54.051708,42.683935 32.827216,0 53.485726,-42.683935 53.485726,-42.683935 m -0.36128,-1.355037 A 53.265933,14.811774 0 0 1 66.20158,37.616015 53.265933,14.811774 0 0 1 12.935648,22.804241 53.265933,14.811774 0 0 1 66.20158,7.9924668 53.265933,14.811774 0 0 1 119.46751,22.804241 Z M 12.348529,23.047189 35.416767,124.2992 H 96.93207 L 120.00031,23.047189" />
  </g>
</svg>
