<?xml version="1.0" encoding="UTF-8" standalone="no"?>
<!-- Created with Inkscape (http://www.inkscape.org/) -->

<svg
   width="500"
   height="500"
   viewBox="0 0 132.29166 132.29167"
   version="1.1"
   id="svg1"
   xml:space="preserve"
   xmlns="http://www.w3.org/2000/svg"
   xmlns:svg="http://www.w3.org/2000/svg"
   xmlns:rdf="http://www.w3.org/1999/02/22-rdf-syntax-ns#"
   xmlns:cc="http://creativecommons.org/ns#"
   xmlns:dc="http://purl.org/dc/elements/1.1/"><title
     id="title10">Production Mini Picospy Icon</title><defs
     id="defs1" /><path
     id="ellipse3"
     style="fill:none;stroke:#000000;stroke-width:2.375;stroke-dasharray:none"
     d="m 105.78747,77.824537 c 0,11.28893 -9.323421,20.440417 -20.824444,20.440417 -11.501023,0 -20.824443,-9.151487 -20.824441,-20.440417 0,-11.288929 9.32342,-20.440413 20.824441,-20.440414 11.501022,0 20.824444,9.151485 20.824444,20.440414 z M 84.96293,51.745323 C 70.289179,51.74525 58.393665,63.4212 58.393493,77.824351 c -1.18e-4,14.403352 11.895481,26.079609 26.569437,26.079539 3.067816,-3e-5 6.112452,-0.52158 8.998934,-1.54151 l 12.973886,17.85731 9.51312,-6.91172 -12.51449,-17.224785 c 4.87011,-4.875328 7.59808,-11.430943 7.59799,-18.258834 C 111.5322,63.4212 99.636682,51.745249 84.96293,51.745323 Z M 18.933369,11.602553 c -0.691091,0.01758 -1.288652,0.185737 -1.780252,0.530717 -4.75219,3.334843 1.323954,35.617959 2.972944,51.431486 1.384475,13.276878 15.030916,34.385448 40.48125,33.897673 2.154585,-0.04129 4.244956,-0.225453 6.266284,-0.536402 4.915538,4.484963 11.378125,6.977873 18.089335,6.977863 3.067816,-3e-5 6.112452,-0.52158 8.998934,-1.54151 l 12.973886,17.85731 9.51312,-6.91172 -12.51449,-17.224785 c 4.87011,-4.875328 7.59808,-11.430943 7.59799,-18.258834 -7e-5,-6.913346 -2.79671,-13.543793 -7.77524,-18.434017 1.72977,-15.975657 7.20714,-44.99375 3.73569,-47.257064 C 102.07933,8.6037753 73.307499,31.803546 60.607311,32.004925 48.21216,32.201466 27.088247,11.395157 18.933369,11.602553 Z m 83.570821,56.006081 c 1.97731,3.197287 3.2832,6.47546 3.28331,10.215717 1.1e-4,11.289055 -9.32342,20.440683 -20.82457,20.440613 -3.857513,-8e-5 -7.11872,-1.312092 -10.402891,-3.298294 15.718917,-5.091267 25.327455,-17.210505 27.944151,-27.358036 z" /><metadata
     id="metadata10"><rdf:RDF><cc:Work
         rdf:about=""><dc:title>Production Mini Picospy Icon</dc:title></cc:Work></rdf:RDF></metadata></svg>
